<svg width="30" height="30" viewBox="0 0 30 30" fill="none" xmlns="http://www.w3.org/2000/svg">
<circle cx="15" cy="15" r="15" fill="#C5BBFF"/>
<path d="M25.3536 15.3536C25.5488 15.1583 25.5488 14.8417 25.3536 14.6464L22.1716 11.4645C21.9763 11.2692 21.6597 11.2692 21.4645 11.4645C21.2692 11.6597 21.2692 11.9763 21.4645 12.1716L24.2929 15L21.4645 17.8284C21.2692 18.0237 21.2692 18.3403 21.4645 18.5355C21.6597 18.7308 21.9763 18.7308 22.1716 18.5355L25.3536 15.3536ZM4.64645 14.6464C4.45118 14.8417 4.45118 15.1583 4.64645 15.3536L7.82843 18.5355C8.02369 18.7308 8.34027 18.7308 8.53553 18.5355C8.7308 18.3403 8.7308 18.0237 8.53553 17.8284L5.70711 15L8.53553 12.1716C8.7308 11.9763 8.7308 11.6597 8.53553 11.4645C8.34027 11.2692 8.02369 11.2692 7.82843 11.4645L4.64645 14.6464ZM25 14.5L5 14.5V15.5L25 15.5V14.5Z" fill="black"/>
</svg>
