<svg width="140" height="53" viewBox="0 0 140 53" fill="none" xmlns="http://www.w3.org/2000/svg">
<mask id="mask0_9_49" style="mask-type:luminance" maskUnits="userSpaceOnUse" x="0" y="0" width="64" height="53">
<path d="M0 0H63.444V52.428H0V0Z" fill="white"/>
</mask>
<g mask="url(#mask0_9_49)">
<path fill-rule="evenodd" clip-rule="evenodd" d="M17.9297 25.1154V24.8009L23.0074 28.5058L29.4653 33.1521V29.8244L47.1442 45.0192V37.2959L63.444 48.2216L47.1442 32.2734V29.1964L63.444 40.1211L47.1442 24.1729V20.9089L63.444 31.7709L47.1442 15.8854V12.8711L63.444 23.7341L47.1442 7.84869V5.0235L63.444 15.8854L47.1442 0L29.4653 15.1948V22.1011L25.4533 18.6479L17.9297 12.2432L0 27.6898V40.5609L17.9297 25.1154ZM17.9297 19.9038V17.0786L23.0074 20.7825L29.4653 25.4288V29.8244L25.4533 26.3713L17.9297 19.9038ZM17.9297 33.3402L44.7621 52.428L17.9297 29.3218L0 44.7674V48.7858L17.9297 33.3402ZM13.6043 42.6328H17.6163V46.6512H13.6043V42.6328ZM17.6163 47.6563V51.6747H13.6043V47.6563H17.6163ZM18.5566 42.6328H22.5686V46.6512H18.5566V42.6328ZM22.5686 47.6563V51.6747H18.5566V47.6563H22.5686Z" fill="white"/>
</g>
<path d="M81.8693 15.941H79.6933V15.108C79.6933 15.023 79.6635 14.9486 79.604 14.8827C79.5445 14.8147 79.4701 14.7807 79.383 14.7807H78.4863C78.3981 14.7807 78.3248 14.8147 78.2653 14.8827C78.2058 14.9486 78.176 15.023 78.176 15.108V16.9907C78.176 17.0757 78.2058 17.1522 78.2653 17.2202C78.3248 17.2861 78.3981 17.318 78.4863 17.318H79.9568C81.3083 17.3382 81.984 18.0564 81.984 19.4727V21.7465C81.984 23.183 81.3083 23.9012 79.9568 23.9012H78.0273C76.6758 23.9012 76 23.183 76 21.7465V20.65H78.176V21.8272C78.176 21.9154 78.2058 21.9919 78.2653 22.0567C78.3248 22.1226 78.3981 22.1545 78.4863 22.1545H79.4978C79.5849 22.1545 79.6593 22.1226 79.7188 22.0567C79.7783 21.9919 79.808 21.9154 79.808 21.8272V19.7532C79.808 19.6661 79.7783 19.5896 79.7188 19.5237C79.6593 19.4589 79.5849 19.426 79.4978 19.426H78.0273C76.6758 19.426 76 18.7067 76 17.267V15.159C76 13.7204 76.6758 13 78.0273 13H79.842C81.1935 13 81.8693 13.7204 81.8693 15.159V15.941Z" fill="white"/>
<path d="M91.84 23.7398H89.5493V15.159C89.5493 13.7204 90.225 13 91.5765 13H92.7878C93.5836 13 94.1499 13.2624 94.4878 13.7863C94.8023 13.2624 95.3686 13 96.1878 13H97.399C98.7473 13 99.422 13.7204 99.422 15.159V23.7398H97.1355V14.9635C97.1355 14.8764 97.1058 14.7999 97.0463 14.734C96.9868 14.6692 96.9124 14.6363 96.8253 14.6363H95.9413C95.8531 14.6363 95.7798 14.6692 95.7203 14.734C95.6608 14.7999 95.631 14.8764 95.631 14.9635V23.7398H93.3445V14.9635C93.3445 14.8764 93.3127 14.7999 93.251 14.734C93.1915 14.6692 93.1193 14.6363 93.0343 14.6363H92.1503C92.0621 14.6363 91.9888 14.6692 91.9293 14.734C91.8698 14.7999 91.84 14.8764 91.84 14.9635V23.7398Z" fill="white"/>
<path d="M111.275 13C112.626 13 113.302 13.7204 113.302 15.159V23.7398H111.011V20.191H109.362V23.7398H107.071V15.159C107.071 13.7204 107.747 13 109.099 13H111.275ZM109.362 18.4273H111.011V14.8785C111.011 14.7935 110.981 14.7191 110.922 14.6533C110.862 14.5884 110.788 14.5555 110.701 14.5555H109.672C109.584 14.5555 109.511 14.5884 109.451 14.6533C109.392 14.7191 109.362 14.7935 109.362 14.8785V18.4273Z" fill="white"/>
<path d="M123.37 19.409V23.7397H121.079V13.1657H125.15C126.502 13.1657 127.178 13.884 127.178 15.3205V16.5487C127.178 17.4189 126.867 17.9746 126.247 18.2147C126.791 18.4102 127.063 18.8565 127.063 19.5535V23.7397H124.772V19.7362C124.772 19.5184 124.668 19.409 124.462 19.409H123.37ZM123.37 14.717V17.8067H124.577C124.664 17.8067 124.738 17.7749 124.798 17.709C124.857 17.6442 124.887 17.5677 124.887 17.4795V15.0442C124.887 14.9571 124.857 14.8806 124.798 14.8147C124.738 14.7499 124.664 14.717 124.577 14.717H123.37Z" fill="white"/>
<path d="M134.123 15.108V13.1657H139.844V15.108H138.127V23.7397H135.84V15.108H134.123Z" fill="white"/>
<path d="M91.1183 40.2039H92.5771V37.4807C92.5771 36.9027 92.8703 36.5361 93.375 36.5361C93.8967 36.5361 94.1719 36.8294 94.1719 37.4807V40.2039H95.6392V37.4615C95.6392 35.9209 94.7871 35.2154 93.9339 35.2154C93.3007 35.2154 92.8247 35.4906 92.5771 35.8848V33.509H91.1183V40.2039Z" fill="white"/>
<path d="M102.049 40.2952C103.204 40.2952 104.461 39.5164 104.461 37.7559C104.461 35.9485 103.222 35.2154 102.049 35.2154C100.939 35.2154 99.6556 35.94 99.6556 37.7559C99.6556 39.5164 100.921 40.2952 102.049 40.2952ZM102.049 39.1307C101.527 39.1307 101.022 38.6452 101.022 37.7559C101.022 36.857 101.517 36.3799 102.049 36.3799C102.581 36.3799 103.085 36.8655 103.085 37.7559C103.085 38.6537 102.563 39.1307 102.049 39.1307Z" fill="white"/>
<path d="M108.596 40.2039H109.999V37.2969C109.999 36.7284 110.311 36.398 110.779 36.398C111.219 36.398 111.494 36.7008 111.485 37.2969V40.2039H112.888V37.2597C112.888 36.7008 113.236 36.398 113.668 36.398C114.098 36.398 114.373 36.6732 114.373 37.2597V40.2039H115.777V37.2512C115.777 35.9666 115.043 35.1602 114.044 35.1602C113.292 35.1602 112.751 35.5363 112.512 35.8933C112.31 35.4439 111.806 35.1602 111.219 35.1602C110.623 35.1602 110.072 35.582 109.926 35.8667L109.761 35.3068H108.596V40.2039Z" fill="white"/>
<path d="M122.241 40.2952C123.158 40.2952 123.708 40.0392 124.34 39.2869L123.461 38.5899C123.176 38.9012 122.845 39.186 122.305 39.186C121.7 39.186 121.186 38.8375 121.15 38.1681H124.396V37.6273C124.396 35.9666 123.35 35.2154 122.122 35.2154C120.911 35.2154 119.819 36.1047 119.819 37.7824C119.819 39.4973 120.956 40.2952 122.241 40.2952ZM121.15 37.2692C121.186 36.6551 121.59 36.279 122.112 36.279C122.663 36.279 123.066 36.6179 123.066 37.2692H121.15Z" fill="white"/>
</svg>
