<svg width="65" height="98" viewBox="0 0 65 98" fill="none" xmlns="http://www.w3.org/2000/svg">
<mask id="mask0_5_45" style="mask-type:luminance" maskUnits="userSpaceOnUse" x="0" y="0" width="64" height="53">
<path d="M0.252502 0H63.6965V52.428H0.252502V0Z" fill="white"/>
</mask>
<g mask="url(#mask0_5_45)">
<path fill-rule="evenodd" clip-rule="evenodd" d="M18.1822 25.1154V24.8009L23.2599 28.5058L29.7178 33.1521V29.8244L47.3967 45.0192V37.2959L63.6965 48.2216L47.3967 32.2734V29.1964L63.6965 40.1211L47.3967 24.1729V20.9089L63.6965 31.7709L47.3967 15.8854V12.8711L63.6965 23.7341L47.3967 7.84869V5.0235L63.6965 15.8854L47.3967 0L29.7178 15.1948V22.1011L25.7058 18.6479L18.1822 12.2432L0.252502 27.6898V40.5609L18.1822 25.1154ZM18.1822 19.9038V17.0786L23.2599 20.7825L29.7178 25.4288V29.8244L25.7058 26.3713L18.1822 19.9038ZM18.1822 33.3402L45.0146 52.428L18.1822 29.3218L0.252502 44.7674V48.7858L18.1822 33.3402ZM13.8568 42.6328H17.8688V46.6512H13.8568V42.6328ZM17.8688 47.6563V51.6747H13.8568V47.6563H17.8688ZM18.8091 42.6328H22.8211V46.6512H18.8091V42.6328ZM22.8211 47.6563V51.6747H18.8091V47.6563H22.8211Z" fill="white"/>
</g>
<path d="M6.23864 73.3498H4.06263V72.5168C4.06263 72.4318 4.03288 72.3574 3.97338 72.2915C3.91388 72.2235 3.83951 72.1895 3.75238 72.1895H2.85563C2.76745 72.1895 2.69413 72.2235 2.63463 72.2915C2.57513 72.3574 2.54538 72.4318 2.54538 72.5168V74.3995C2.54538 74.4845 2.57513 74.561 2.63463 74.629C2.69413 74.6949 2.76745 74.7268 2.85563 74.7268H4.32613C5.67764 74.7469 6.35339 75.4652 6.35339 76.8815V79.1553C6.35339 80.5918 5.67764 81.31 4.32613 81.31H2.39663C1.04513 81.31 0.369385 80.5918 0.369385 79.1553V78.0588H2.54538V79.236C2.54538 79.3242 2.57513 79.4007 2.63463 79.4655C2.69413 79.5314 2.76745 79.5633 2.85563 79.5633H3.86713C3.95426 79.5633 4.02863 79.5314 4.08813 79.4655C4.14763 79.4007 4.17738 79.3242 4.17738 79.236V77.162C4.17738 77.0749 4.14763 76.9984 4.08813 76.9325C4.02863 76.8677 3.95426 76.8348 3.86713 76.8348H2.39663C1.04513 76.8348 0.369385 76.1154 0.369385 74.6758V72.5678C0.369385 71.1291 1.04513 70.4088 2.39663 70.4088H4.21138C5.56289 70.4088 6.23864 71.1291 6.23864 72.5678V73.3498Z" fill="white"/>
<path d="M16.2094 81.1485H13.9187V72.5678C13.9187 71.1291 14.5944 70.4088 15.9459 70.4088H17.1572C17.953 70.4088 18.5193 70.6712 18.8572 71.195C19.1717 70.6712 19.738 70.4088 20.5572 70.4088H21.7684C23.1167 70.4088 23.7914 71.1291 23.7914 72.5678V81.1485H21.5049V72.3723C21.5049 72.2851 21.4752 72.2086 21.4157 72.1428C21.3562 72.0779 21.2818 72.045 21.1947 72.045H20.3107C20.2225 72.045 20.1492 72.0779 20.0897 72.1428C20.0302 72.2086 20.0004 72.2851 20.0004 72.3723V81.1485H17.7139V72.3723C17.7139 72.2851 17.682 72.2086 17.6204 72.1428C17.5609 72.0779 17.4887 72.045 17.4037 72.045H16.5197C16.4315 72.045 16.3582 72.0779 16.2987 72.1428C16.2392 72.2086 16.2094 72.2851 16.2094 72.3723V81.1485Z" fill="white"/>
<path d="M35.644 70.4088C36.9955 70.4088 37.6713 71.1291 37.6713 72.5678V81.1485H35.3805V77.5998H33.7315V81.1485H31.4408V72.5678C31.4408 71.1291 32.1165 70.4088 33.468 70.4088H35.644ZM33.7315 75.836H35.3805V72.2873C35.3805 72.2023 35.3508 72.1279 35.2913 72.062C35.2318 71.9972 35.1574 71.9643 35.0703 71.9643H34.0418C33.9536 71.9643 33.8803 71.9972 33.8208 72.062C33.7613 72.1279 33.7315 72.2023 33.7315 72.2873V75.836Z" fill="white"/>
<path d="M47.7391 76.8178V81.1485H45.4483V70.5745H49.5198C50.8713 70.5745 51.5471 71.2928 51.5471 72.7293V73.9575C51.5471 74.8277 51.2368 75.3834 50.6163 75.6235C51.1603 75.819 51.4323 76.2653 51.4323 76.9623V81.1485H49.1416V77.145C49.1416 76.9272 49.0375 76.8178 48.8313 76.8178H47.7391ZM47.7391 72.1258V75.2155H48.9461C49.0332 75.2155 49.1076 75.1836 49.1671 75.1178C49.2266 75.0529 49.2563 74.9764 49.2563 74.8883V72.453C49.2563 72.3659 49.2266 72.2894 49.1671 72.2235C49.1076 72.1587 49.0332 72.1258 48.9461 72.1258H47.7391Z" fill="white"/>
<path d="M58.4928 72.5168V70.5745H64.2133V72.5168H62.4963V81.1485H60.2098V72.5168H58.4928Z" fill="white"/>
<path d="M15.4877 97.6126H16.9465V94.8894C16.9465 94.3114 17.2397 93.9449 17.7444 93.9449C18.2661 93.9449 18.5413 94.2381 18.5413 94.8894V97.6126H20.0086V94.8703C20.0086 93.3297 19.1565 92.6242 18.3033 92.6242C17.67 92.6242 17.194 92.8994 16.9465 93.2936V90.9178H15.4877V97.6126Z" fill="white"/>
<path d="M26.4188 97.704C27.5738 97.704 28.8307 96.9252 28.8307 95.1646C28.8307 93.3573 27.5918 92.6242 26.4188 92.6242C25.3085 92.6242 24.025 93.3488 24.025 95.1646C24.025 96.9252 25.2905 97.704 26.4188 97.704ZM26.4188 96.5395C25.8961 96.5395 25.3914 96.0539 25.3914 95.1646C25.3914 94.2657 25.8865 93.7887 26.4188 93.7887C26.9501 93.7887 27.4548 94.2742 27.4548 95.1646C27.4548 96.0624 26.932 96.5395 26.4188 96.5395Z" fill="white"/>
<path d="M32.9659 97.6126H34.3684V94.7056C34.3684 94.1372 34.6807 93.8067 35.1482 93.8067C35.5881 93.8067 35.8633 94.1095 35.8548 94.7056V97.6126H37.2573V94.6684C37.2573 94.1095 37.6058 93.8067 38.0372 93.8067C38.4675 93.8067 38.7427 94.0819 38.7427 94.6684V97.6126H40.1462V94.6599C40.1462 93.3754 39.412 92.5689 38.4133 92.5689C37.661 92.5689 37.1202 92.945 36.8812 93.302C36.6793 92.8526 36.1757 92.5689 35.5881 92.5689C34.992 92.5689 34.4417 92.9907 34.295 93.2755L34.1304 92.7155H32.9659V97.6126Z" fill="white"/>
<path d="M46.6103 97.704C47.5272 97.704 48.0776 97.4479 48.7098 96.6957L47.83 95.9987C47.5453 96.31 47.2148 96.5947 46.674 96.5947C46.0695 96.5947 45.5552 96.2462 45.5191 95.5769H48.765V95.036C48.765 93.3754 47.7195 92.6242 46.4913 92.6242C45.28 92.6242 44.1888 93.5135 44.1888 95.1912C44.1888 96.906 45.3257 97.704 46.6103 97.704ZM45.5191 94.678C45.5552 94.0639 45.959 93.6877 46.4817 93.6877C47.0321 93.6877 47.4358 94.0267 47.4358 94.678H45.5191Z" fill="white"/>
</svg>
