<svg width="73" height="106" viewBox="0 0 73 106" fill="none" xmlns="http://www.w3.org/2000/svg">
<g filter="url(#filter0_d_8_2)">
<mask id="mask0_8_2" style="mask-type:luminance" maskUnits="userSpaceOnUse" x="4" y="0" width="64" height="53">
<path d="M4.2525 0H67.6965V52.428H4.2525V0Z" fill="white"/>
</mask>
<g mask="url(#mask0_8_2)">
<path fill-rule="evenodd" clip-rule="evenodd" d="M22.1822 25.1154V24.8009L27.2599 28.5058L33.7178 33.1521V29.8244L51.3967 45.0192V37.2959L67.6965 48.2216L51.3967 32.2734V29.1964L67.6965 40.1211L51.3967 24.1729V20.9089L67.6965 31.7709L51.3967 15.8854V12.8711L67.6965 23.7341L51.3967 7.84869V5.0235L67.6965 15.8854L51.3967 0L33.7178 15.1948V22.1011L29.7058 18.6479L22.1822 12.2432L4.2525 27.6898V40.5609L22.1822 25.1154ZM22.1822 19.9038V17.0786L27.2599 20.7825L33.7178 25.4288V29.8244L29.7058 26.3713L22.1822 19.9038ZM22.1822 33.3402L49.0146 52.428L22.1822 29.3218L4.2525 44.7674V48.7858L22.1822 33.3402ZM17.8568 42.6328H21.8688V46.6512H17.8568V42.6328ZM21.8688 47.6563V51.6747H17.8568V47.6563H21.8688ZM22.8091 42.6328H26.8211V46.6512H22.8091V42.6328ZM26.8211 47.6563V51.6747H22.8091V47.6563H26.8211Z" fill="#1649FF"/>
</g>
<path d="M10.2386 73.3498H8.06263V72.5168C8.06263 72.4318 8.03288 72.3574 7.97338 72.2915C7.91388 72.2235 7.83951 72.1895 7.75238 72.1895H6.85563C6.76745 72.1895 6.69413 72.2235 6.63463 72.2915C6.57513 72.3574 6.54538 72.4318 6.54538 72.5168V74.3995C6.54538 74.4845 6.57513 74.561 6.63463 74.629C6.69413 74.6949 6.76745 74.7268 6.85563 74.7268H8.32613C9.67764 74.7469 10.3534 75.4652 10.3534 76.8815V79.1553C10.3534 80.5918 9.67764 81.31 8.32613 81.31H6.39663C5.04513 81.31 4.36938 80.5918 4.36938 79.1553V78.0588H6.54538V79.236C6.54538 79.3242 6.57513 79.4007 6.63463 79.4655C6.69413 79.5314 6.76745 79.5633 6.85563 79.5633H7.86713C7.95426 79.5633 8.02863 79.5314 8.08813 79.4655C8.14763 79.4007 8.17738 79.3242 8.17738 79.236V77.162C8.17738 77.0749 8.14763 76.9984 8.08813 76.9325C8.02863 76.8677 7.95426 76.8348 7.86713 76.8348H6.39663C5.04513 76.8348 4.36938 76.1154 4.36938 74.6758V72.5678C4.36938 71.1291 5.04513 70.4088 6.39663 70.4088H8.21138C9.56289 70.4088 10.2386 71.1291 10.2386 72.5678V73.3498Z" fill="black"/>
<path d="M20.2094 81.1485H17.9187V72.5678C17.9187 71.1291 18.5944 70.4088 19.9459 70.4088H21.1572C21.953 70.4088 22.5193 70.6712 22.8572 71.195C23.1717 70.6712 23.738 70.4088 24.5572 70.4088H25.7684C27.1167 70.4088 27.7914 71.1291 27.7914 72.5678V81.1485H25.5049V72.3723C25.5049 72.2851 25.4752 72.2086 25.4157 72.1428C25.3562 72.0779 25.2818 72.045 25.1947 72.045H24.3107C24.2225 72.045 24.1492 72.0779 24.0897 72.1428C24.0302 72.2086 24.0004 72.2851 24.0004 72.3723V81.1485H21.7139V72.3723C21.7139 72.2851 21.682 72.2086 21.6204 72.1428C21.5609 72.0779 21.4887 72.045 21.4037 72.045H20.5197C20.4315 72.045 20.3582 72.0779 20.2987 72.1428C20.2392 72.2086 20.2094 72.2851 20.2094 72.3723V81.1485Z" fill="black"/>
<path d="M39.644 70.4088C40.9955 70.4088 41.6713 71.1291 41.6713 72.5678V81.1485H39.3805V77.5998H37.7315V81.1485H35.4408V72.5678C35.4408 71.1291 36.1165 70.4088 37.468 70.4088H39.644ZM37.7315 75.836H39.3805V72.2873C39.3805 72.2023 39.3508 72.1279 39.2913 72.062C39.2318 71.9972 39.1574 71.9643 39.0703 71.9643H38.0418C37.9536 71.9643 37.8803 71.9972 37.8208 72.062C37.7613 72.1279 37.7315 72.2023 37.7315 72.2873V75.836Z" fill="black"/>
<path d="M51.7391 76.8178V81.1485H49.4483V70.5745H53.5198C54.8713 70.5745 55.5471 71.2928 55.5471 72.7293V73.9575C55.5471 74.8277 55.2368 75.3834 54.6163 75.6235C55.1603 75.819 55.4323 76.2653 55.4323 76.9623V81.1485H53.1416V77.145C53.1416 76.9272 53.0375 76.8178 52.8313 76.8178H51.7391ZM51.7391 72.1258V75.2155H52.9461C53.0332 75.2155 53.1076 75.1836 53.1671 75.1178C53.2266 75.0529 53.2563 74.9764 53.2563 74.8883V72.453C53.2563 72.3659 53.2266 72.2894 53.1671 72.2235C53.1076 72.1587 53.0332 72.1258 52.9461 72.1258H51.7391Z" fill="black"/>
<path d="M62.4928 72.5168V70.5745H68.2133V72.5168H66.4963V81.1485H64.2098V72.5168H62.4928Z" fill="black"/>
<path d="M19.4877 97.6126H20.9465V94.8894C20.9465 94.3114 21.2397 93.9449 21.7444 93.9449C22.2661 93.9449 22.5413 94.2381 22.5413 94.8894V97.6126H24.0086V94.8703C24.0086 93.3297 23.1565 92.6242 22.3033 92.6242C21.67 92.6242 21.194 92.8994 20.9465 93.2936V90.9178H19.4877V97.6126Z" fill="black"/>
<path d="M30.4188 97.704C31.5738 97.704 32.8307 96.9252 32.8307 95.1646C32.8307 93.3573 31.5918 92.6242 30.4188 92.6242C29.3085 92.6242 28.025 93.3488 28.025 95.1646C28.025 96.9252 29.2905 97.704 30.4188 97.704ZM30.4188 96.5395C29.8961 96.5395 29.3914 96.0539 29.3914 95.1646C29.3914 94.2657 29.8865 93.7887 30.4188 93.7887C30.9501 93.7887 31.4548 94.2742 31.4548 95.1646C31.4548 96.0624 30.932 96.5395 30.4188 96.5395Z" fill="black"/>
<path d="M36.9659 97.6126H38.3684V94.7056C38.3684 94.1372 38.6807 93.8067 39.1482 93.8067C39.5881 93.8067 39.8633 94.1095 39.8548 94.7056V97.6126H41.2573V94.6684C41.2573 94.1095 41.6058 93.8067 42.0372 93.8067C42.4675 93.8067 42.7427 94.0819 42.7427 94.6684V97.6126H44.1462V94.6599C44.1462 93.3754 43.412 92.5689 42.4133 92.5689C41.661 92.5689 41.1202 92.945 40.8812 93.302C40.6793 92.8526 40.1757 92.5689 39.5881 92.5689C38.992 92.5689 38.4417 92.9907 38.295 93.2755L38.1304 92.7155H36.9659V97.6126Z" fill="black"/>
<path d="M50.6103 97.704C51.5272 97.704 52.0776 97.4479 52.7098 96.6957L51.83 95.9987C51.5453 96.31 51.2148 96.5947 50.674 96.5947C50.0695 96.5947 49.5552 96.2462 49.5191 95.5769H52.765V95.036C52.765 93.3754 51.7195 92.6242 50.4913 92.6242C49.28 92.6242 48.1888 93.5135 48.1888 95.1912C48.1888 96.906 49.3257 97.704 50.6103 97.704ZM49.5191 94.678C49.5552 94.0639 49.959 93.6877 50.4817 93.6877C51.0321 93.6877 51.4358 94.0267 51.4358 94.678H49.5191Z" fill="black"/>
</g>
<defs>
<filter id="filter0_d_8_2" x="0.252502" y="0" width="71.9608" height="105.704" filterUnits="userSpaceOnUse" color-interpolation-filters="sRGB">
<feFlood flood-opacity="0" result="BackgroundImageFix"/>
<feColorMatrix in="SourceAlpha" type="matrix" values="0 0 0 0 0 0 0 0 0 0 0 0 0 0 0 0 0 0 127 0" result="hardAlpha"/>
<feOffset dy="4"/>
<feGaussianBlur stdDeviation="2"/>
<feComposite in2="hardAlpha" operator="out"/>
<feColorMatrix type="matrix" values="0 0 0 0 0 0 0 0 0 0 0 0 0 0 0 0 0 0 0.25 0"/>
<feBlend mode="normal" in2="BackgroundImageFix" result="effect1_dropShadow_8_2"/>
<feBlend mode="normal" in="SourceGraphic" in2="effect1_dropShadow_8_2" result="shape"/>
</filter>
</defs>
</svg>
